<svg width="38" height="24" viewBox="0 0 38 24" fill="none" xmlns="http://www.w3.org/2000/svg">
<path d="M32.3545 1.78991C30.2782 0.537108 26.525 0 21.7235 0H7.78834C7.31328 9.312e-06 6.85381 0.0897315 6.49253 0.253036C6.13125 0.41634 5.89187 0.642514 5.81742 0.890895L0.0150572 20.3722C-0.100275 20.7563 0.461633 21.1042 1.19714 21.1042H9.80024L11.9609 13.8493L11.8938 14.0765C12.0477 13.5637 12.8762 13.1855 13.8573 13.1855H17.9455C25.9767 13.1855 32.2652 11.4586 34.1022 6.46305C34.1567 6.3153 34.204 6.1715 34.2448 6.03101C34.013 5.96601 34.013 5.96601 34.2448 6.03101C34.7918 4.18462 34.2411 2.92779 32.3545 1.78991" fill="#27346A"/>
<path d="M15.2527 5.36588C15.4879 5.30659 15.7452 5.27587 16.0057 5.27595H26.9306C28.2243 5.27595 29.431 5.32052 30.5336 5.41447C30.8422 5.44051 31.1491 5.47161 31.454 5.50771C31.8862 5.55819 32.3134 5.61998 32.734 5.69284C33.2761 5.78869 33.7809 5.9003 34.245 6.03101C34.7918 4.18391 34.2411 2.92779 32.3545 1.78991C30.277 0.537108 26.525 0 21.7235 0H7.78715C6.80593 0 5.97119 0.378161 5.81742 0.890895L0.015058 20.3715C-0.100274 20.7563 0.461634 21.1036 1.19594 21.1036H9.80025L14.2828 6.05531C14.3269 5.90739 14.4382 5.76737 14.6072 5.64727C14.7761 5.52717 14.9977 5.43061 15.2527 5.36588V5.36588Z" fill="#38488C"/>
<path d="M34.1021 6.46304C32.2652 11.4579 25.9768 13.1855 17.9454 13.1855H13.856C12.875 13.1855 12.0463 13.5637 11.8939 14.0765L9.20594 23.0971C9.10551 23.4333 9.59664 23.7379 10.2392 23.7379H17.4914C17.9068 23.7379 18.3086 23.6593 18.6244 23.5165C18.9402 23.3736 19.1494 23.1758 19.2143 22.9586L19.285 22.7629L20.6518 18.177L20.7399 17.9236C20.8048 17.7064 21.014 17.5086 21.3298 17.3657C21.6456 17.2228 22.0473 17.1443 22.4627 17.1442H23.5481C30.5733 17.1442 36.0743 15.6333 37.6818 11.2636C38.3527 9.43745 38.0056 7.91282 36.2306 6.84191C35.6922 6.51755 35.0236 6.24967 34.2447 6.03101C34.2026 6.1722 34.1568 6.3153 34.1021 6.46304V6.46304Z" fill="#2790C3"/>
<path d="M32.3221 5.62549C32.0357 5.58122 31.7465 5.54202 31.4552 5.50796C31.1501 5.47245 30.8432 5.44157 30.5347 5.41535C29.4309 5.32077 28.2251 5.27613 26.9302 5.27613H16.0066C15.7459 5.27581 15.4885 5.3068 15.2537 5.36676C14.9984 5.43129 14.7766 5.5278 14.6075 5.64793C14.4385 5.76806 14.3273 5.90819 14.2837 6.05619L11.9618 13.8496L11.8948 14.0768C12.0475 13.564 12.876 13.1857 13.8572 13.1857H17.9466C25.9778 13.1857 32.2662 11.4588 34.1032 6.4633C34.1579 6.31556 34.2038 6.17238 34.2459 6.03126C33.7807 5.90127 33.2772 5.78894 32.735 5.69373C32.5982 5.66972 32.4606 5.64697 32.3222 5.62549" fill="#293265"/>
</svg>
