<svg width="38" height="24" viewBox="0 0 38 24" fill="none" xmlns="http://www.w3.org/2000/svg">
<path d="M13.8625 2.53906H24.1372V21.1997H13.8625V2.53906Z" fill="#FF4201"/>
<path d="M14.5151 11.869C14.5151 8.07754 16.2764 4.7146 18.9836 2.53857C16.9941 0.956077 14.4826 0 11.7427 0C5.25143 0 0 5.30798 0 11.869C0 18.4298 5.25143 23.7379 11.7425 23.7379C14.4824 23.7379 16.9939 22.7818 18.9836 21.1992C16.2764 19.0562 14.5151 15.6604 14.5151 11.869V11.869Z" fill="#FF4201"/>
<path d="M37.9999 11.869C37.9999 18.4298 32.7484 23.7379 26.2574 23.7379C23.5175 23.7379 21.0059 22.7818 19.0162 21.1992C21.7561 19.0233 23.4849 15.6604 23.4849 11.869C23.4849 8.07754 21.7235 4.7146 19.0162 2.53857C21.0058 0.956077 23.5175 0 26.2574 0C32.7484 0 38 5.34102 38 11.869H37.9999Z" fill="#F79E1B"/>
</svg>
