<svg width="38" height="24" viewBox="0 0 38 24" fill="none" xmlns="http://www.w3.org/2000/svg">
<path d="M37.6304 9.54442H36.1V9.49516H19V14.2427H29.7379C28.1713 17.0064 23.9618 18.9903 19 18.9903C12.7043 18.9903 7.6 15.8017 7.6 11.869C7.6 7.93618 12.7043 4.74758 19 4.74758C21.906 4.74758 24.5499 5.43242 26.563 6.55107L31.9371 3.19394C28.5437 1.21835 24.0046 0 19 0C8.50725 0 0 5.31433 0 11.869C0 18.4236 8.50725 23.7379 19 23.7379C29.4927 23.7379 38 18.4236 38 11.869C38 11.0731 37.8689 10.2963 37.6304 9.54442Z" fill="#FFC107"/>
<path d="M2.19055 6.34455L8.433 9.20438C10.1221 6.59202 14.2128 4.74758 18.9999 4.74758C21.9059 4.74758 24.5498 5.43242 26.5628 6.55107L31.937 3.19394C28.5436 1.21835 24.0045 0 18.9999 0C11.702 0 5.37305 2.57378 2.19055 6.34455Z" fill="#FF3D00"/>
<path d="M19.0001 23.7379C23.9078 23.7379 28.3671 22.5647 31.7386 20.6567L25.8581 17.5482C23.8864 18.4849 21.4772 18.9915 19.0001 18.9903C14.0582 18.9903 9.86203 17.0219 8.28123 14.2748L2.08533 17.2569C5.22983 21.1006 11.6157 23.7379 19.0001 23.7379Z" fill="#4CAF50"/>
<path d="M37.6304 9.54437H36.1V9.49512H19V14.2427H29.7379C28.9885 15.558 27.6387 16.7074 25.8552 17.5488L25.858 17.5476L31.7386 20.6561C31.3225 20.8923 38 17.8034 38 11.8689C38 11.0731 37.8689 10.2963 37.6304 9.54437Z" fill="#1976D2"/>
</svg>
